<svg width="730" height="283" viewBox="0 0 730 283" fill="none" xmlns="http://www.w3.org/2000/svg">
<g clip-path="url(#clip0_1_2)">
<path d="M147.32 0H64.36V141.13H147.31C186.28 141.13 217.87 109.54 217.87 70.57C217.87 31.6 186.29 0 147.32 0Z" fill="#08D7F3"/>
<path d="M133.52 141.13H70.56V282.26H133.51C172.48 282.26 204.07 250.67 204.07 211.7C204.07 172.73 172.48 141.14 133.51 141.14L133.52 141.13Z" fill="#737CFD"/>
<path d="M0 70.56C0 31.59 31.59 0 70.56 0C109.53 0 141.12 31.59 141.12 70.56C141.12 109.53 109.53 141.12 70.56 141.12C109.53 141.12 141.12 172.71 141.12 211.68C141.12 250.65 109.53 282.24 70.56 282.24C34.1 282.24 3.71 254.61 0 219.13V70.56Z" fill="white"/>
<path d="M282.67 130.26V44.86H326.94C335.14 44.86 340.99 46.45 344.5 49.64C348.01 52.83 349.76 57.48 349.76 63.58C349.76 69.68 348.64 74.4 346.41 77.72C344.18 81.05 341.19 83.21 337.46 84.21V85.03C348.48 86.94 353.99 94.46 353.99 107.58C353.99 114.41 352.17 119.9 348.52 124.05C344.88 128.2 339.27 130.27 331.71 130.27H282.65L282.67 130.26ZM318.61 63.58H310V76.29H318.47C321.93 76.29 323.66 74.17 323.66 69.94C323.66 65.71 321.97 63.59 318.6 63.59L318.61 63.58ZM320.66 96.24H310V110.18H320.52C324.35 110.18 326.26 107.86 326.26 103.21C326.26 98.56 324.39 96.24 320.66 96.24Z" fill="white"/>
<path d="M363.57 130.26V44.86H390.9V130.27H363.57V130.26Z" fill="white"/>
<path d="M454.72 130.26L433.81 99.92C433.08 98.92 432.63 96.73 432.44 93.36H431.89V130.26H404.56V44.86H430.25L451.16 75.2C451.89 76.2 452.34 78.39 452.53 81.76H453.08V44.86H480.41V130.27H454.72V130.26Z" fill="white"/>
<path d="M494.07 130.26V44.86H532.33C547.72 44.86 558.29 48.14 564.03 54.7C569.77 61.26 572.64 72.21 572.64 87.56C572.64 102.91 569.77 113.86 564.03 120.42C558.29 126.98 547.72 130.26 532.33 130.26H494.07ZM532.74 66.72H521.4V108.4H532.74C536.47 108.4 539.18 107.97 540.87 107.1C542.55 106.24 543.4 104.25 543.4 101.16V73.97C543.4 70.87 542.56 68.89 540.87 68.03C539.18 67.17 536.47 66.73 532.74 66.73V66.72Z" fill="white"/>
<path d="M636.87 98.01H609.54V108.4H643.02V130.26H582.21V44.86H642.34L638.92 66.72H609.54V78.2H636.87V98.01Z" fill="white"/>
<path d="M729.11 130.26H699.05L687.84 104.84H681.96V130.26H654.63V44.86H697.68C717.27 44.86 727.06 54.84 727.06 74.79C727.06 88.45 722.82 97.47 714.35 101.85L729.11 130.27V130.26ZM681.96 66.72V83.8H688.24C691.52 83.8 693.91 83.46 695.41 82.78C696.91 82.1 697.67 80.53 697.67 78.07V72.47C697.67 70.01 696.92 68.44 695.41 67.76C693.9 67.08 691.52 66.74 688.24 66.74H681.96V66.72Z" fill="white"/>
<path d="M282.67 230.85V145.44H326.94C335.14 145.44 340.99 147.03 344.5 150.22C348.01 153.41 349.76 158.06 349.76 164.16C349.76 170.26 348.64 174.98 346.41 178.3C344.18 181.63 341.19 183.79 337.46 184.79V185.61C348.48 187.52 353.99 195.04 353.99 208.16C353.99 214.99 352.17 220.48 348.52 224.63C344.88 228.78 339.27 230.85 331.71 230.85H282.65H282.67ZM318.61 164.17H310V176.88H318.47C321.93 176.88 323.66 174.76 323.66 170.53C323.66 166.3 321.97 164.18 318.6 164.18L318.61 164.17ZM320.66 196.83H310V210.77H320.52C324.35 210.77 326.26 208.45 326.26 203.8C326.26 199.15 324.39 196.83 320.66 196.83Z" fill="white"/>
<path d="M418.23 230.85H363.57V145.44H390.9V208.98H418.23V230.84V230.85Z" fill="white"/>
<path d="M425.75 230.85V145.44H453.08V230.85H425.75Z" fill="white"/>
<path d="M527.55 167.31H507.74V230.85H480.41V167.31H460.6V145.45H527.56V167.31H527.55Z" fill="white"/>
<path d="M605.3 230.85H531.64V213.77L566.62 168.13L566.21 167.31H537.52L535.06 145.45H604.75V162.53L570.18 208.17L570.59 208.99H605.3V230.85Z" fill="white"/>
</g>
<defs>
<clipPath id="clip0_1_2">
<rect width="729.11" height="282.25" fill="white"/>
</clipPath>
</defs>
</svg>
